<svg width="842" height="822" viewBox="0 0 842 822" fill="none" xmlns="http://www.w3.org/2000/svg">
<path d="M433.312 2.4373C435.109 3.5623 435.109 3.5623 437 4.9998C437.789 5.59792 438.578 6.19605 439.391 6.8123C442.32 9.14188 445.167 11.5558 448 13.9998C448.889 14.7619 448.889 14.7619 449.797 15.5393C456.015 20.8692 462.191 26.2396 468.25 31.7498C472.489 35.5952 476.889 39.2071 481.336 42.8084C485.327 46.0916 489.159 49.5435 493 52.9998C497.396 56.9203 501.865 60.7232 506.438 64.4373C510.629 67.8444 514.682 71.363 518.695 74.9764C521.203 77.1784 523.778 79.2782 526.375 81.3748C531.224 85.3084 535.85 89.4383 540.449 93.66C545.644 98.4253 550.967 102.991 556.437 107.437C561.42 111.491 566.226 115.705 571 120C575.375 123.901 579.821 127.684 584.375 131.375C588.008 134.327 591.54 137.347 595 140.5C598.32 143.523 601.698 146.425 605.187 149.25C613.924 156.326 622.385 163.74 630.75 171.25C633.907 174.075 637.146 176.77 640.437 179.437C644.919 183.071 649.206 186.865 653.469 190.75C656.088 193.078 658.775 195.295 661.5 197.5C665.963 201.11 670.227 204.884 674.469 208.75C677.088 211.078 679.775 213.295 682.5 215.5C686.963 219.11 691.227 222.884 695.469 226.75C698.088 229.078 700.775 231.295 703.5 233.5C708.837 237.821 713.92 242.382 719 247C724.189 251.626 729.49 256.119 734.802 260.603C740.639 265.532 746.438 270.507 752.234 275.484C754.573 277.491 756.913 279.497 759.253 281.503C760.415 282.499 761.577 283.495 762.739 284.491C765.716 287.043 768.694 289.594 771.676 292.14C781.77 300.769 781.77 300.769 786.687 305.187C789.864 308.035 793.122 310.752 796.437 313.437C800.921 317.073 805.212 320.869 809.477 324.758C812.051 327.045 814.693 329.215 817.375 331.375C839.888 349.736 839.888 349.736 841.296 358.932C842.247 369.211 841.277 378.227 835.012 386.683C829.04 393.789 822.787 398.393 813.336 399.238C800.258 399.566 793.093 394.786 783.687 386.363C781.254 384.02 781.254 384.02 779 383C779 527.87 779 672.74 779 822C758.87 822 738.74 822 718 822C718.019 815.85 718.037 809.7 718.056 803.364C718.174 762.745 718.276 722.125 718.307 681.505C718.307 680.811 718.308 680.118 718.308 679.404C718.32 664.335 718.328 649.266 718.333 634.197C718.335 626.807 718.338 619.417 718.342 612.027C718.342 611.291 718.342 610.556 718.343 609.798C718.354 585.971 718.411 562.143 718.491 538.316C718.573 513.826 718.609 489.336 718.588 464.846C718.585 461.385 718.583 457.925 718.58 454.464C718.58 453.442 718.58 453.442 718.579 452.4C718.573 441.445 718.616 430.491 718.677 419.536C718.737 408.517 718.745 397.499 718.703 386.48C718.682 380.511 718.683 374.545 718.746 368.576C718.803 363.108 718.795 357.644 718.737 352.176C718.727 350.201 718.74 348.226 718.78 346.252C719.189 334.921 719.189 334.921 714.014 325.303C711.153 322.663 708.089 320.433 704.849 318.283C701.697 316.095 698.873 313.535 696 311C694.839 310.002 693.676 309.006 692.512 308.012C690.136 305.976 687.764 303.936 685.395 301.894C680.105 297.342 674.808 292.818 669.375 288.437C664.916 284.822 660.685 280.998 656.484 277.09C652.352 273.267 648.038 269.713 643.652 266.183C641.007 264.006 638.468 261.747 635.937 259.437C632.809 256.588 629.637 253.867 626.312 251.25C620.675 246.803 615.285 242.089 609.875 237.371C606.19 234.157 602.472 230.983 598.75 227.812C594.535 224.217 590.392 220.562 586.312 216.812C581.904 212.766 577.339 208.972 572.684 205.215C570.053 203.043 567.521 200.797 565 198.5C561.583 195.385 558.095 192.408 554.5 189.5C550.037 185.889 545.773 182.116 541.531 178.25C538.912 175.921 536.225 173.704 533.5 171.5C529.036 167.888 524.77 164.113 520.527 160.246C517.93 157.938 515.266 155.744 512.562 153.562C507.79 149.703 503.269 145.628 498.754 141.472C495.168 138.253 491.433 135.241 487.684 132.215C485.053 130.043 482.521 127.797 480 125.5C476.583 122.385 473.095 119.408 469.5 116.5C465.905 113.592 462.417 110.614 459 107.5C454.809 103.684 450.476 100.096 446.07 96.5311C441.746 92.9663 437.524 89.2888 433.302 85.6043C432.108 84.5624 430.91 83.5241 429.708 82.49C428.574 81.5006 427.457 80.4913 426.358 79.4627C424.656 77.8647 424.656 77.8647 422 75.9998C418.889 76.3376 417.119 77.4657 414.82 79.5193C414.229 80.0408 413.637 80.5623 413.027 81.0997C412.086 81.9474 412.086 81.9474 411.125 82.8123C409.775 84.0054 408.425 85.1981 407.074 86.3904C406.393 86.9956 405.711 87.6009 405.009 88.2244C402.014 90.8709 398.978 93.4678 395.938 96.0623C394.78 97.0531 393.622 98.044 392.465 99.035C391.894 99.5237 391.322 100.012 390.734 100.516C387.821 103.009 384.911 105.504 382 108C380.833 109 379.667 110 378.5 111C377.923 111.495 377.345 111.99 376.75 112.5C315.5 165 315.5 165 313.75 166.5C312.583 167.5 311.415 168.501 310.248 169.502C307.345 171.991 304.441 174.479 301.535 176.965C295.507 182.124 289.493 187.299 283.5 192.5C276.934 198.198 270.34 203.864 263.734 209.516C260.821 212.009 257.911 214.504 255 217C253.833 218 252.667 219 251.5 220C250.923 220.495 250.345 220.99 249.75 221.5C230.5 238 230.5 238 228.75 239.5C227.583 240.5 226.415 241.501 225.248 242.502C222.345 244.991 219.441 247.479 216.535 249.965C210.507 255.124 204.493 260.299 198.5 265.5C191.934 271.198 185.34 276.864 178.734 282.516C175.821 285.009 165.411 281.505 162.5 284C161.333 285 161.167 285.5 160 286.5C159.423 286.995 153.595 287.49 153 288C147.75 292.5 152.251 292.999 150.5 294.5C149.338 295.496 150.162 298.504 149 299.5C146.01 302.064 142.493 301.939 139.5 304.5C136.569 307.008 136.426 305.486 133.5 308C132.176 309.134 132.831 310.05 131.5 311.176C130.813 311.762 130.208 310.571 129.5 311.176C128.663 311.883 127.854 311.778 127 312.5C121.926 317.296 123.799 312.373 121.5 318.71C121.498 320.621 119.002 316.761 119 318.71C111.631 298.413 108.508 323.137 108.5 323.875C108.481 326.275 103.984 332.6 104 335C103.994 336.738 90.0105 339.262 90 341C89.9775 345.775 89.9864 352.225 90 357C90.0093 362.149 102.016 372.351 102 377.5C101.976 386.422 103.993 402.578 104 411.5C104.01 424.399 97.0244 433.601 97 446.5C96.9611 467.427 100.503 483.073 100.5 504C100.497 524.33 112.027 550.17 112 570.5C111.997 572.379 112.003 574.083 112 576C111.992 582.286 111.509 587.214 111.5 593.5C111.428 645.653 113.513 705.347 113.5 757.5C145.909 757.806 182.59 758.427 215 758.5C218.83 758.509 220.784 761.384 226 757.5C226.762 757.502 228.214 758.498 229 758.5C241.331 758.534 247.484 767.116 265 760.5C277.661 760.628 286.338 760.011 299 760C306.808 759.995 320.693 757.376 328.5 757.5C334.497 757.589 338.003 758.549 344 758.5C344 762.745 370.048 756.437 372.5 756.5L379.143 750.144C382.917 745.632 385.526 740.671 387.922 735.325C389.477 731.97 391.405 728.939 393.375 725.812C397.055 719.231 399.758 712.481 402.188 705.371C403.086 702.75 404.012 700.139 404.938 697.527C413.688 672.445 421.186 645.789 420 619C419.971 617.374 419.971 617.374 419.941 615.715C419.424 602.819 415.451 589.22 405.98 580.043C404.608 578.833 403.214 577.648 401.797 576.492C400 575 400 575 398.125 572.812C395.224 570.338 392.059 569.324 388.508 568.004C386.334 567.133 384.529 566.187 382.562 564.937C372.886 559.269 360.695 558.836 349.797 557.391C346.826 556.976 343.868 556.501 340.906 556.023C333.696 554.903 326.458 554.161 319.202 553.425C305.264 552.001 291.372 550.337 277.5 548.375C276.749 548.271 275.997 548.167 275.223 548.059C273.096 547.763 270.97 547.457 268.844 547.148C267.639 546.975 266.434 546.801 265.193 546.622C262.225 546.044 259.761 545.205 257 544C252.58 542.618 248.152 541.601 243.625 540.625C238.048 539.368 233.088 537.59 228 535L226.5 534L225 533C225 533 218.628 530.135 215.375 527.75C214.772 527.312 214.169 526.873 213.547 526.422C204.864 519.887 196.695 511.798 191.965 501.902C191.044 499.911 191.044 499.911 189.441 498.129C185.657 492.539 186.838 484.351 186.823 477.863C186.816 476.645 186.81 475.426 186.803 474.171C186.783 470.146 186.772 466.122 186.762 462.097C186.758 460.708 186.754 459.318 186.749 457.928C186.73 451.401 186.716 444.873 186.708 438.346C186.698 430.826 186.672 423.306 186.631 415.786C186.601 409.961 186.586 404.137 186.583 398.313C186.581 394.839 186.572 391.365 186.547 387.891C186.519 384.016 186.523 380.141 186.53 376.266C186.511 374.55 186.511 374.55 186.491 372.8C186.534 366.257 187.214 362.372 191 357C191.837 354.892 191.837 354.892 192.375 353C195.978 343.224 205.619 336.546 214.748 332.16C222.309 329.232 230.066 329.582 238.042 329.619C239.675 329.615 241.309 329.611 242.942 329.605C247.416 329.592 251.889 329.598 256.362 329.608C261.193 329.614 266.023 329.604 270.853 329.596C280.311 329.582 289.768 329.585 299.226 329.594C306.914 329.601 314.602 329.602 322.29 329.598C323.384 329.598 324.479 329.597 325.607 329.597C327.831 329.596 330.054 329.595 332.278 329.594C353.128 329.585 373.979 329.595 394.829 329.611C412.711 329.625 430.593 329.623 448.475 329.609C469.248 329.593 490.021 329.586 510.794 329.596C513.01 329.596 515.226 329.597 517.443 329.598C519.078 329.599 519.078 329.599 520.747 329.6C528.423 329.602 536.099 329.598 543.774 329.591C553.133 329.582 562.492 329.585 571.85 329.601C576.623 329.609 581.396 329.612 586.169 329.602C590.543 329.593 594.916 329.598 599.289 329.614C600.867 329.617 602.445 329.615 604.023 329.608C625.929 329.515 625.929 329.515 633.687 336.25C634.409 336.867 635.131 337.485 635.875 338.121C636.576 338.741 637.277 339.361 638 340C638.701 340.548 639.402 341.095 640.125 341.66C648.402 348.291 653.565 357.333 654.8 367.863C655.095 371.015 655.128 374.14 655.131 377.304C655.135 378.343 655.135 378.343 655.138 379.403C655.143 381.71 655.142 384.018 655.14 386.326C655.143 388.002 655.146 389.679 655.149 391.355C655.157 395.952 655.159 400.549 655.16 405.147C655.162 410.109 655.169 415.071 655.176 420.033C655.19 430.878 655.196 441.723 655.2 452.568C655.203 459.342 655.207 466.116 655.212 472.891C655.224 491.654 655.234 510.418 655.238 529.182C655.238 530.382 655.238 531.582 655.238 532.819C655.238 534.022 655.239 535.225 655.239 536.465C655.239 538.903 655.24 541.341 655.24 543.778C655.24 544.988 655.241 546.197 655.241 547.443C655.245 567.037 655.262 586.631 655.286 606.225C655.309 626.352 655.322 646.479 655.323 666.606C655.324 677.902 655.33 689.199 655.348 700.495C655.363 710.114 655.368 719.733 655.36 729.352C655.356 734.256 655.357 739.161 655.371 744.066C655.384 748.562 655.383 753.058 655.37 757.555C655.369 759.175 655.372 760.796 655.38 762.416C655.504 786.88 655.504 786.88 647.75 796.437C646.957 797.416 646.164 798.394 645.348 799.402C642.92 802.088 640.472 804.51 637.605 806.719C635.875 808.025 635.875 808.025 634.203 810.019C631.46 812.485 629.097 813.186 625.562 814.187C624.45 814.511 623.338 814.834 622.191 815.168C616.208 816.728 610.863 817.141 604.702 817.123C603.757 817.124 602.813 817.125 601.839 817.126C598.657 817.129 595.474 817.124 592.291 817.12C589.993 817.12 587.695 817.121 585.398 817.123C579.07 817.125 572.742 817.121 566.414 817.116C560.295 817.112 554.176 817.113 548.057 817.114C535.539 817.115 523.021 817.112 510.502 817.106C498.106 817.1 485.709 817.096 473.312 817.095C472.157 817.095 472.157 817.095 470.978 817.094C467.065 817.094 463.152 817.094 459.24 817.094C431.518 817.091 403.796 817.085 376.074 817.075C349.141 817.066 322.207 817.059 295.274 817.055C293.581 817.054 291.888 817.054 290.194 817.054C276.435 817.052 262.677 817.05 248.918 817.048C185.279 817.038 121.639 817.018 58 817C58 675.1 58 533.2 58 387C56.68 387.99 55.36 388.98 54 390C53.34 390 52.68 390 52 390C52 390.66 52 391.32 52 392C42.2551 397.673 34.2328 400.66 22.875 398.312C13.6886 395.645 7.17696 389.369 2.625 381.125C-0.663653 373.069 -0.364415 362 2.1875 353.75C7.01897 343.693 17.8676 335.865 26.3867 329.109C29.0126 326.99 31.5086 324.775 34 322.5C37.396 319.404 40.8617 316.448 44.4375 313.562C49.2114 309.702 53.7339 305.625 58.25 301.469C61.8118 298.271 65.5257 295.286 69.25 292.281C72.081 289.933 74.7938 287.491 77.5 285C81.9698 280.886 86.5904 277.029 91.3164 273.215C93.9471 271.043 96.4794 268.797 99 266.5C103.3 262.581 107.759 258.908 112.281 255.25C115.779 252.355 119.118 249.304 122.473 246.246C125.07 243.938 127.734 241.744 130.438 239.562C134.241 236.486 137.901 233.312 141.5 230C145.97 225.886 150.59 222.029 155.316 218.215C157.947 216.043 160.479 213.797 163 211.5C166.396 208.404 169.862 205.448 173.438 202.562C177.241 199.486 180.901 196.312 184.5 193C188.97 188.886 193.59 185.029 198.316 181.215C200.947 179.043 203.479 176.797 206 174.5C210.3 170.581 214.759 166.908 219.281 163.25C221.921 161.065 224.467 158.808 227 156.5C231.3 152.581 235.759 148.908 240.281 145.25C243.779 142.355 247.118 139.304 250.473 136.246C253.07 133.938 255.734 131.744 258.438 129.562C262.241 126.486 265.901 123.312 269.5 120C273.97 115.886 278.59 112.029 283.316 108.215C285.947 106.043 288.479 103.797 291 101.5C295.292 97.5877 299.743 93.9207 304.258 90.2693C307.843 87.3017 311.283 84.1899 314.711 81.0428C321.482 74.9998 321.482 74.9998 324 74.9998C324 74.3398 324 73.6798 324 72.9998C325.573 71.5854 327.211 70.2438 328.875 68.9373C332.688 65.8895 336.398 62.7948 340 59.4998C344.3 55.5809 348.759 51.9081 353.281 48.2498C355.921 46.0648 358.467 43.8081 361 41.4998C365.3 37.5809 369.759 33.9081 374.281 30.2498C376.921 28.0648 379.467 25.8081 382 23.4998C387.173 18.7941 392.548 14.3761 398 9.9998C398.82 9.32304 399.64 8.64628 400.484 7.94902C401.253 7.3264 402.021 6.70378 402.812 6.0623C403.479 5.51703 404.145 4.97175 404.832 4.40996C412.099 -0.317163 425.303 -1.20963 433.312 2.4373Z" fill="#ACACAC"/>
<path d="M433.312 2.4373C435.109 3.5623 435.109 3.5623 437 4.9998C437.789 5.59792 438.578 6.19605 439.391 6.8123C442.32 9.14188 445.167 11.5558 448 13.9998C448.889 14.7619 448.889 14.7619 449.797 15.5393C456.015 20.8692 462.191 26.2396 468.25 31.7498C472.489 35.5952 476.889 39.2071 481.336 42.8084C485.327 46.0916 489.159 49.5435 493 52.9998C497.396 56.9203 501.865 60.7232 506.438 64.4373C510.629 67.8444 514.682 71.363 518.695 74.9764C521.203 77.1784 523.778 79.2782 526.375 81.3748C531.224 85.3084 535.85 89.4383 540.449 93.66C545.644 98.4253 550.967 102.991 556.437 107.437C561.42 111.491 566.226 115.705 571 120C575.375 123.901 579.821 127.684 584.375 131.375C588.008 134.327 591.54 137.347 595 140.5C598.32 143.523 601.698 146.425 605.187 149.25C613.924 156.326 622.385 163.74 630.75 171.25C633.907 174.075 637.146 176.77 640.437 179.437C644.919 183.071 649.206 186.865 653.469 190.75C656.088 193.078 658.775 195.295 661.5 197.5C665.963 201.11 670.227 204.884 674.469 208.75C677.088 211.078 679.775 213.295 682.5 215.5C686.963 219.11 691.227 222.884 695.469 226.75C698.088 229.078 700.775 231.295 703.5 233.5C708.837 237.821 713.92 242.382 719 247C724.189 251.626 729.49 256.119 734.802 260.603C740.639 265.532 746.438 270.507 752.234 275.484C754.573 277.491 756.913 279.497 759.253 281.503C760.415 282.499 761.577 283.495 762.739 284.491C765.716 287.043 768.694 289.594 771.676 292.14C781.77 300.769 781.77 300.769 786.687 305.187C789.864 308.035 793.122 310.752 796.437 313.437C800.921 317.073 805.212 320.869 809.477 324.758C812.051 327.045 814.693 329.215 817.375 331.375C839.888 349.736 839.888 349.736 841.296 358.932C842.247 369.211 841.277 378.227 835.012 386.683C829.04 393.789 822.787 398.393 813.336 399.238C800.258 399.566 793.093 394.786 783.687 386.363C781.254 384.02 781.254 384.02 779 383C779 527.87 779 672.74 779 822C758.87 822 738.74 822 718 822C718.019 815.85 718.037 809.7 718.056 803.364C718.174 762.745 718.276 722.125 718.307 681.505C718.307 680.811 718.308 680.118 718.308 679.404C718.32 664.335 718.328 649.266 718.333 634.197C718.335 626.807 718.338 619.417 718.342 612.027C718.342 611.291 718.342 610.556 718.343 609.798C718.354 585.971 718.411 562.143 718.491 538.316C718.573 513.826 718.609 489.336 718.588 464.846C718.585 461.385 718.583 457.925 718.58 454.464C718.58 453.442 718.58 453.442 718.579 452.4C718.573 441.445 718.616 430.491 718.677 419.536C718.737 408.517 718.745 397.499 718.703 386.48C718.682 380.511 718.683 374.545 718.746 368.576C718.803 363.108 718.795 357.644 718.737 352.176C718.727 350.201 718.74 348.226 718.78 346.252C719.189 334.921 719.189 334.921 714.014 325.303C711.153 322.663 708.089 320.433 704.849 318.283C701.697 316.095 698.873 313.535 696 311C694.839 310.002 693.676 309.006 692.512 308.012C690.136 305.976 687.764 303.936 685.395 301.894C680.105 297.342 674.808 292.818 669.375 288.437C664.916 284.822 660.685 280.998 656.484 277.09C652.352 273.267 648.038 269.713 643.652 266.183C641.007 264.006 638.468 261.747 635.937 259.437C632.809 256.588 629.637 253.867 626.312 251.25C620.675 246.803 615.285 242.089 609.875 237.371C606.19 234.157 602.472 230.983 598.75 227.812C594.535 224.217 590.392 220.562 586.312 216.812C581.904 212.766 577.339 208.972 572.684 205.215C570.053 203.043 567.521 200.797 565 198.5C561.583 195.385 558.095 192.408 554.5 189.5C550.037 185.889 545.773 182.116 541.531 178.25C538.912 175.921 536.225 173.704 533.5 171.5C529.036 167.888 524.77 164.113 520.527 160.246C517.93 157.938 515.266 155.744 512.562 153.562C507.79 149.703 503.269 145.628 498.754 141.472C495.168 138.253 491.433 135.241 487.684 132.215C485.053 130.043 482.521 127.797 480 125.5C476.583 122.385 473.095 119.408 469.5 116.5C465.905 113.592 462.417 110.614 459 107.5C454.809 103.684 450.476 100.096 446.07 96.5311C441.746 92.9663 437.524 89.2888 433.302 85.6043C432.108 84.5624 430.91 83.5241 429.708 82.49C428.574 81.5006 427.457 80.4913 426.358 79.4627C424.656 77.8647 424.656 77.8647 422 75.9998C418.889 76.3376 417.119 77.4657 414.82 79.5193C414.229 80.0408 413.637 80.5623 413.027 81.0997C412.086 81.9474 412.086 81.9474 411.125 82.8123C409.775 84.0054 408.425 85.1981 407.074 86.3904C406.393 86.9956 405.711 87.6009 405.009 88.2244C402.014 90.8709 398.978 93.4678 395.938 96.0623C394.78 97.0531 393.622 98.044 392.465 99.035C391.894 99.5237 391.322 100.012 390.734 100.516C387.821 103.009 384.911 105.504 382 108C380.833 109 379.667 110 378.5 111C377.923 111.495 377.345 111.99 376.75 112.5C315.5 165 315.5 165 313.75 166.5C312.583 167.5 311.415 168.501 310.248 169.502C307.345 171.991 304.441 174.479 301.535 176.965C295.507 182.124 289.493 187.299 283.5 192.5C276.934 198.198 270.34 203.864 263.734 209.516C260.821 212.009 257.911 214.504 255 217C253.833 218 252.667 219 251.5 220C250.923 220.495 250.345 220.99 249.75 221.5C230.5 238 230.5 238 228.75 239.5C227.583 240.5 226.415 241.501 225.248 242.502C222.345 244.991 219.441 247.479 216.535 249.965C210.507 255.124 204.493 260.299 198.5 265.5C191.934 271.198 185.34 276.864 178.734 282.516C175.821 285.009 172.911 287.504 170 290C168.833 291 167.667 292 166.5 293C165.923 293.495 165.345 293.99 164.75 294.5C159.5 299 159.5 299 157.75 300.5C156.583 301.5 155.415 302.501 154.248 303.502C147.257 309.495 147.257 309.495 143.894 312.365C142.742 313.354 141.594 314.348 140.454 315.35C137.426 317.997 134.371 320.488 131.092 322.819C122.288 329.265 122.288 329.265 118.31 339.028C118.03 342.881 118.088 346.687 118.196 350.546C118.19 352.294 118.176 354.041 118.157 355.789C118.124 360.562 118.183 365.329 118.259 370.101C118.324 375.258 118.302 380.414 118.29 385.571C118.283 394.495 118.33 403.418 118.414 412.342C118.536 425.244 118.575 438.145 118.594 451.047C118.627 471.982 118.726 492.917 118.868 513.851C119.006 534.182 119.112 554.512 119.176 574.843C119.18 576.11 119.184 577.377 119.188 578.682C119.219 588.591 119.249 598.499 119.278 608.408C119.419 656.939 119.721 705.469 120 754C203.82 754.33 287.64 754.66 374 755C370.049 762.901 363.77 769.583 357.312 775.562C355.747 777.081 353.5 780 353.5 780L349 784C347.389 785.448 345.806 786.93 344.25 788.437C314.226 816.13 314.226 816.13 300.896 816.123C300.032 816.125 299.167 816.127 298.276 816.129C297.321 816.126 296.366 816.123 295.382 816.12C293.871 816.121 293.871 816.121 292.328 816.123C288.918 816.124 285.509 816.119 282.099 816.113C279.626 816.113 277.153 816.113 274.679 816.114C268.71 816.114 262.741 816.11 256.771 816.103C249.869 816.096 242.968 816.095 236.066 816.094C217.835 816.089 199.605 816.075 181.375 816.062C140.661 816.042 99.9475 816.021 58 816C58 674.43 58 532.86 58 387C56.68 387.99 55.36 388.98 54 390L53 391L52 392C42.2551 397.673 34.2328 400.66 22.875 398.312C13.6886 395.645 7.17696 389.369 2.625 381.125C-0.663653 373.069 -0.364415 362 2.1875 353.75C7.01897 343.693 17.8676 335.865 26.3867 329.109C29.0126 326.99 31.5086 324.775 34 322.5C37.396 319.404 40.8617 316.448 44.4375 313.562C49.2114 309.702 53.7339 305.625 58.25 301.469C61.8118 298.271 65.5257 295.286 69.25 292.281C72.081 289.933 74.7938 287.491 77.5 285C81.9698 280.886 86.5904 277.029 91.3164 273.215C93.9471 271.043 96.4794 268.797 99 266.5C103.3 262.581 107.759 258.908 112.281 255.25C115.779 252.355 119.118 249.304 122.473 246.246C125.07 243.938 127.734 241.744 130.438 239.562C134.241 236.486 137.901 233.312 141.5 230C145.97 225.886 150.59 222.029 155.316 218.215C157.947 216.043 160.479 213.797 163 211.5C166.396 208.404 169.862 205.448 173.438 202.562C177.241 199.486 180.901 196.312 184.5 193C188.97 188.886 193.59 185.029 198.316 181.215C200.947 179.043 203.479 176.797 206 174.5C210.3 170.581 214.759 166.908 219.281 163.25C221.921 161.065 224.467 158.808 227 156.5C231.3 152.581 235.759 148.908 240.281 145.25C243.779 142.355 247.118 139.304 250.473 136.246C253.07 133.938 255.734 131.744 258.438 129.562C262.241 126.486 265.901 123.312 269.5 120C273.97 115.886 278.59 112.029 283.316 108.215C285.947 106.043 288.479 103.797 291 101.5C295.292 97.5877 299.743 93.9207 304.258 90.2693C307.843 87.3017 311.283 84.1899 314.711 81.0428C321.482 74.9998 322.5 74.5 322.5 74.5L324 72.9998C325.573 71.5854 327.211 70.2438 328.875 68.9373C332.688 65.8895 336.398 62.7948 340 59.4998C344.3 55.5809 348.759 51.9081 353.281 48.2498C355.921 46.0648 358.467 43.8081 361 41.4998C365.3 37.5809 369.759 33.9081 374.281 30.2498C376.921 28.0648 379.467 25.8081 382 23.4998C387.173 18.7941 392.548 14.3761 398 9.9998C398.82 9.32304 399.64 8.64628 400.484 7.94902C401.253 7.3264 402.021 6.70378 402.812 6.0623C403.479 5.51703 404.145 4.97175 404.832 4.40996C412.099 -0.317163 425.303 -1.20963 433.312 2.4373Z" fill="#2F2F2F"/>
<path d="M539 330C549.11 329.93 559.221 329.877 569.331 329.845C574.027 329.829 578.722 329.808 583.418 329.774C587.956 329.741 592.495 329.723 597.034 329.716C598.758 329.71 600.482 329.699 602.206 329.683C625.876 329.468 625.876 329.468 633.688 336.25C634.409 336.868 635.131 337.485 635.875 338.121C636.576 338.741 637.277 339.361 638 340C638.701 340.548 639.402 341.096 640.125 341.66C648.373 348.268 653.569 357.306 654.799 367.807C655.117 371.283 655.148 374.753 655.147 378.24C655.151 379.03 655.155 379.819 655.158 380.633C655.169 383.259 655.173 385.885 655.177 388.511C655.183 390.402 655.19 392.293 655.197 394.185C655.218 400.377 655.228 406.57 655.238 412.762C655.242 414.9 655.246 417.038 655.251 419.176C655.27 429.222 655.284 439.268 655.292 449.314C655.302 460.885 655.328 472.455 655.369 484.025C655.399 492.987 655.414 501.948 655.417 510.91C655.419 516.254 655.428 521.598 655.453 526.942C655.477 531.973 655.481 537.003 655.471 542.034C655.47 543.872 655.476 545.71 655.49 547.547C655.623 566.227 651.516 582.884 638.258 596.922C627.308 607 625 608 625 608L622 610C619.051 611.281 619.051 611.281 615.312 612.5C610.134 614.203 610.134 614.203 605.203 616.492C600.756 618.586 596.221 619.563 591.438 620.625C590.524 620.842 589.611 621.058 588.67 621.281C577.054 623.908 565.368 624.181 553.5 624.188C552.38 624.2 551.26 624.212 550.105 624.225C542.226 624.238 534.745 623.426 527 622C526.165 621.849 525.33 621.697 524.47 621.541C515.039 619.747 506.601 617.368 498 613C497.178 612.683 496.355 612.366 495.508 612.039C486.554 608.33 480.501 601.753 475 594C474.275 593.03 474.275 593.03 473.535 592.039C464.517 579.046 464.015 561.72 466.388 546.512C471.02 524.583 483.326 504.21 494.631 485.167C500.859 474.65 506.622 463.893 512.346 453.096C513.508 450.921 514.684 448.755 515.871 446.594C518.892 441.082 521.729 435.79 523.688 429.813C525.016 425.875 526.373 422.012 528 418.188C530.905 410.95 533.07 403.546 535 396C535.202 395.233 535.404 394.465 535.612 393.675C540.818 372.914 539.376 351.224 539 330Z" fill="#2E2E2E"/>
<path d="M417 658C495.54 658 574.08 658 655 658C655 676.15 655 694.3 655 713C571.18 713 487.36 713 401 713C401.767 706.865 402.388 703.475 404.625 698.062C408.678 687.876 411.395 677.299 414.226 666.722C415.06 663.788 416.035 660.894 417 658Z" fill="#303030"/>
<path d="M453 367C453.762 367.424 454.524 367.848 455.309 368.285C463.352 373.155 469.136 380.187 472.34 389.062C474.473 398.556 474.265 408.625 469 417C468.294 418.17 468.294 418.17 467.574 419.363C461.811 428.463 455.347 433.69 445 437C435.916 438.231 428.122 437.281 420 433L419 432C412.813 429.945 407.882 421.211 405.062 415.687C400.822 406.76 400.46 396.514 403.625 387.125C407.725 377.402 414.819 369.43 424.445 364.832C434.298 361.458 443.986 361.749 453 367Z" fill="#303030"/>
<path d="M235 329.5C236.728 329.52 236.737 329.479 238.5 329.5C241.316 329.535 244.184 329.438 247 329.5C247 331.15 247 333.3 247 335C247.68 335 246.34 335 247 335C246.899 335.86 246 337.5 246 337.5C244.058 346.98 236.281 355.81 230 363C229.492 363.591 228.984 364.181 228.461 364.789C223.128 370.542 216.497 374.689 210 379C209.01 379.66 208.02 380.32 207 381C204.725 381.609 202.43 382.143 200.125 382.625C198.911 382.886 197.696 383.146 196.445 383.414C193.529 383.91 189.444 384.123 186.5 384C186.446 380.979 186.5 375 186.5 375C186.483 374.153 186.5 371 186.5 371C186.445 363.864 189.106 359.362 192.312 352.938C192.7 352.142 193.088 351.347 193.488 350.527C196.899 344.825 200.803 341.082 206.25 337.313C207.835 336.193 207.835 336.193 209.453 335.051C217.708 329.97 225.471 329.286 235 329.5Z" fill="#2F2F2F"/>
<path d="M441 386C445.441 388.499 449.123 391.14 451 396C451.425 401.36 451.489 404.669 448 409C444.548 412.031 442.359 413.869 437.75 414.312C433.227 413.936 431.415 412.96 428 410C425.288 406.607 424.106 403.752 423.5 399.437C424.295 393.969 426.653 391.137 430.812 387.625C434.73 385.628 436.654 385.251 441 386Z" fill="#A6A6A6"/>
</svg>
